<?xml version="1.0" encoding="UTF-8"?>
<svg xmlns="http://www.w3.org/2000/svg" xmlns:xlink="http://www.w3.org/1999/xlink" width="15px" height="15px" viewBox="0 0 15 15" version="1.1">
<defs>
<filter id="alpha" filterUnits="objectBoundingBox" x="0%" y="0%" width="100%" height="100%">
  <feColorMatrix type="matrix" in="SourceGraphic" values="0 0 0 0 1 0 0 0 0 1 0 0 0 0 1 0 0 0 1 0"/>
</filter>
<mask id="mask0">
  <g filter="url(#alpha)">
<rect x="0" y="0" width="15" height="15" style="fill:rgb(0%,0%,0%);fill-opacity:0.501961;stroke:none;"/>
  </g>
</mask>
<clipPath id="clip1">
  <rect x="0" y="0" width="15" height="15"/>
</clipPath>
<g id="surface5" clip-path="url(#clip1)">
<path style=" stroke:none;fill-rule:nonzero;fill:rgb(100%,78.039217%,21.960784%);fill-opacity:1;" d="M 4.929688 8.800781 L 1.367188 6.230469 C 1.328125 6.203125 1.308594 6.152344 1.324219 6.105469 L 7.5 7.972656 L 3.679688 13.347656 C 3.636719 13.320312 3.621094 13.265625 3.636719 13.222656 L 4.988281 8.972656 C 5.007812 8.910156 4.984375 8.839844 4.929688 8.800781 Z M 4.929688 8.800781 "/>
<path style=" stroke:none;fill-rule:nonzero;fill:rgb(100%,78.039217%,21.960784%);fill-opacity:1;" d="M 7.351562 1.636719 C 7.359375 1.613281 7.375 1.589844 7.398438 1.578125 C 7.417969 1.566406 7.4375 1.558594 7.460938 1.558594 L 7.5 7.972656 L 5.898438 6.003906 C 5.929688 5.984375 5.953125 5.953125 5.964844 5.921875 Z M 11.125 13.417969 L 7.546875 10.601562 C 7.519531 10.582031 7.488281 10.574219 7.457031 10.574219 L 7.5 7.972656 L 11.257812 13.417969 C 11.21875 13.445312 11.164062 13.449219 11.125 13.417969 Z M 11.125 13.417969 "/>
<path style=" stroke:none;fill-rule:nonzero;fill:rgb(100%,78.039217%,21.960784%);fill-opacity:1;" d="M 7.5 7.972656 L 13.675781 6.132812 C 13.691406 6.179688 13.671875 6.230469 13.632812 6.257812 L 10.007812 8.84375 C 9.984375 8.863281 9.964844 8.886719 9.953125 8.917969 Z M 7.5 7.972656 "/>
</g>
</defs>
<g id="surface1">
<path style=" stroke:none;fill-rule:nonzero;fill:rgb(100%,78.039217%,21.960784%);fill-opacity:1;" d="M 9.121094 6.050781 L 13.566406 6.054688 C 13.617188 6.054688 13.660156 6.085938 13.675781 6.132812 C 13.691406 6.179688 13.671875 6.234375 13.632812 6.261719 L 10.007812 8.84375 C 9.953125 8.882812 9.929688 8.953125 9.953125 9.019531 L 11.289062 13.289062 C 11.304688 13.335938 11.292969 13.386719 11.25 13.417969 C 11.210938 13.445312 11.160156 13.449219 11.117188 13.417969 L 7.539062 10.601562 C 7.488281 10.5625 7.414062 10.5625 7.359375 10.601562 L 3.808594 13.347656 C 3.769531 13.375 3.714844 13.375 3.675781 13.347656 C 3.636719 13.320312 3.617188 13.269531 3.632812 13.222656 L 4.984375 8.972656 C 5.003906 8.910156 4.984375 8.839844 4.929688 8.800781 L 1.363281 6.230469 C 1.335938 6.210938 1.316406 6.175781 1.316406 6.140625 C 1.316406 6.105469 1.335938 6.070312 1.363281 6.046875 C 1.382812 6.035156 1.40625 6.027344 1.429688 6.027344 L 5.8125 6.027344 C 5.878906 6.027344 5.9375 5.984375 5.960938 5.921875 L 7.351562 1.636719 C 7.363281 1.589844 7.40625 1.558594 7.457031 1.558594 C 7.503906 1.558594 7.550781 1.589844 7.5625 1.636719 L 8.972656 5.949219 C 8.996094 6.011719 9.054688 6.050781 9.121094 6.050781 Z M 9.121094 6.050781 "/>
<use xlink:href="#surface5" mask="url(#mask0)"/>
<path style="fill:none;stroke-width:7;stroke-linecap:round;stroke-linejoin:round;stroke:rgb(7.058824%,7.450981%,19.215687%);stroke-opacity:1;stroke-miterlimit:4;" d="M 261.471354 173.455729 L 388.903646 173.567708 C 390.359375 173.567708 391.591146 174.463542 392.039062 175.807292 C 392.486979 177.151042 391.927083 178.71875 390.807292 179.502604 L 286.890625 253.520833 C 285.322917 254.640625 284.651042 256.65625 285.322917 258.559896 L 323.619792 380.953125 C 324.067708 382.296875 323.731771 383.752604 322.5 384.648438 C 321.380208 385.432292 319.924479 385.544271 318.692708 384.648438 L 216.119792 303.911458 C 214.664062 302.791667 212.536458 302.791667 210.96875 303.911458 L 109.179688 382.632812 C 108.059896 383.416667 106.492188 383.416667 105.372396 382.632812 C 104.252604 381.848958 103.692708 380.393229 104.140625 379.049479 L 142.885417 257.216146 C 143.445312 255.424479 142.885417 253.408854 141.317708 252.289062 L 39.080729 178.606771 C 38.296875 178.046875 37.736979 177.039062 37.736979 176.03125 C 37.736979 175.023438 38.296875 174.015625 39.080729 173.34375 C 39.640625 173.007812 40.3125 172.783854 40.984375 172.783854 L 166.625 172.783854 C 168.528646 172.783854 170.208333 171.552083 170.880208 169.760417 L 210.744792 46.919271 C 211.080729 45.575521 212.3125 44.679688 213.768229 44.679688 C 215.111979 44.679688 216.455729 45.575521 216.791667 46.919271 L 257.216146 170.544271 C 257.888021 172.335938 259.567708 173.455729 261.471354 173.455729 Z M 261.471354 173.455729 " transform="matrix(0.0348837,0,0,0.0348837,0,0)"/>
</g>
</svg>
