<?xml version="1.0" encoding="UTF-8"?>
<svg xmlns="http://www.w3.org/2000/svg" xmlns:xlink="http://www.w3.org/1999/xlink" width="20px" height="20px" viewBox="0 0 20 20" version="1.1">
<g id="surface1">
<path style=" stroke:none;fill-rule:nonzero;fill:rgb(0%,0%,0%);fill-opacity:1;" d="M 19.898438 9.621094 C 17.273438 6.972656 13.769531 5.511719 10.039062 5.511719 C 10.03125 5.511719 10.023438 5.515625 10.011719 5.515625 C 10.007812 5.515625 10.003906 5.511719 10 5.511719 C 9.988281 5.511719 9.976562 5.515625 9.964844 5.515625 C 6.261719 5.535156 2.789062 6.988281 0.179688 9.621094 L 0.101562 9.699219 C -0.0351562 9.835938 -0.03125 10.054688 0.101562 10.1875 C 0.167969 10.253906 0.257812 10.289062 0.34375 10.289062 C 0.433594 10.289062 0.523438 10.253906 0.589844 10.1875 L 0.667969 10.105469 C 2.480469 8.28125 4.726562 7.054688 7.179688 6.515625 C 6.164062 7.339844 5.511719 8.59375 5.511719 10 C 5.511719 12.472656 7.527344 14.488281 10 14.488281 C 12.472656 14.488281 14.488281 12.472656 14.488281 10 C 14.488281 8.578125 13.820312 7.3125 12.789062 6.492188 C 15.28125 7.015625 17.570312 8.253906 19.410156 10.105469 C 19.542969 10.242188 19.761719 10.242188 19.898438 10.109375 C 20.03125 9.972656 20.035156 9.753906 19.898438 9.621094 Z M 13.796875 10 C 13.796875 12.09375 12.09375 13.796875 10 13.796875 C 7.90625 13.796875 6.203125 12.09375 6.203125 10 C 6.203125 7.917969 7.886719 6.226562 9.964844 6.203125 C 9.980469 6.203125 9.996094 6.203125 10.011719 6.203125 C 12.101562 6.210938 13.796875 7.910156 13.796875 10 Z M 13.796875 10 "/>
<path style=" stroke:none;fill-rule:nonzero;fill:rgb(0%,0%,0%);fill-opacity:1;" d="M 12.425781 9.65625 C 12.234375 9.65625 12.082031 9.808594 12.082031 10 C 12.082031 11.140625 11.152344 12.070312 10.007812 12.070312 C 8.867188 12.070312 7.9375 11.140625 7.9375 10 C 7.9375 8.859375 8.867188 7.929688 10.007812 7.929688 C 10.199219 7.929688 10.355469 7.773438 10.355469 7.582031 C 10.355469 7.394531 10.199219 7.238281 10.007812 7.238281 C 8.488281 7.238281 7.25 8.476562 7.25 10 C 7.25 11.523438 8.488281 12.761719 10.007812 12.761719 C 11.53125 12.761719 12.769531 11.523438 12.769531 10 C 12.769531 9.808594 12.617188 9.65625 12.425781 9.65625 Z M 12.425781 9.65625 "/>
</g>
</svg>
